<svg width="132" height="70" viewBox="0 0 132 70" fill="none" xmlns="http://www.w3.org/2000/svg">
<g filter="url(#filter0_d_20_56)">
<ellipse cx="20.5" cy="43.2462" rx="16.5" ry="17.2297" fill="white"/>
<ellipse cx="31.5" cy="29.6713" rx="11.5" ry="12.0086" fill="white"/>
<ellipse cx="67.5" cy="42.2021" rx="11.5" ry="12.0086" fill="white"/>
<ellipse cx="46" cy="43.7684" rx="19" ry="19.8403" fill="white"/>
</g>
<g filter="url(#filter1_d_20_56)">
<ellipse cx="12.5" cy="13.0528" rx="12.5" ry="13.0528" transform="matrix(-1 0 0 1 128 12.4423)" fill="white"/>
<ellipse cx="11.5" cy="12.0086" rx="11.5" ry="12.0086" transform="matrix(-1 0 0 1 84 2)" fill="white"/>
<ellipse cx="11.5" cy="12.0086" rx="11.5" ry="12.0086" transform="matrix(-1 0 0 1 75 14.5308)" fill="white"/>
<ellipse cx="19" cy="19.8403" rx="19" ry="19.8403" transform="matrix(-1 0 0 1 111 6.17688)" fill="white"/>
</g>
<defs>
<filter id="filter0_d_20_56" x="0" y="15.6627" width="83" height="53.946" filterUnits="userSpaceOnUse" color-interpolation-filters="sRGB">
<feFlood flood-opacity="0" result="BackgroundImageFix"/>
<feColorMatrix in="SourceAlpha" type="matrix" values="0 0 0 0 0 0 0 0 0 0 0 0 0 0 0 0 0 0 127 0" result="hardAlpha"/>
<feOffset dy="2"/>
<feGaussianBlur stdDeviation="2"/>
<feComposite in2="hardAlpha" operator="out"/>
<feColorMatrix type="matrix" values="0 0 0 0 0 0 0 0 0 0 0 0 0 0 0 0 0 0 0.12 0"/>
<feBlend mode="normal" in2="BackgroundImageFix" result="effect1_dropShadow_20_56"/>
<feBlend mode="normal" in="SourceGraphic" in2="effect1_dropShadow_20_56" result="shape"/>
</filter>
<filter id="filter1_d_20_56" x="48" y="0" width="84" height="51.8575" filterUnits="userSpaceOnUse" color-interpolation-filters="sRGB">
<feFlood flood-opacity="0" result="BackgroundImageFix"/>
<feColorMatrix in="SourceAlpha" type="matrix" values="0 0 0 0 0 0 0 0 0 0 0 0 0 0 0 0 0 0 127 0" result="hardAlpha"/>
<feOffset dy="2"/>
<feGaussianBlur stdDeviation="2"/>
<feComposite in2="hardAlpha" operator="out"/>
<feColorMatrix type="matrix" values="0 0 0 0 0 0 0 0 0 0 0 0 0 0 0 0 0 0 0.12 0"/>
<feBlend mode="normal" in2="BackgroundImageFix" result="effect1_dropShadow_20_56"/>
<feBlend mode="normal" in="SourceGraphic" in2="effect1_dropShadow_20_56" result="shape"/>
</filter>
</defs>
</svg>
