<svg width="110" height="110" viewBox="0 0 110 110" fill="none" xmlns="http://www.w3.org/2000/svg">
<g filter="url(#filter0_i_1_4828)">
<circle cx="55" cy="55" r="55" fill="#95C3BB"/>
<mask id="mask0_1_4828" style="mask-type:alpha" maskUnits="userSpaceOnUse" x="0" y="0" width="110" height="110">
<circle cx="55" cy="55" r="55" fill="#95C3BB"/>
</mask>
<g mask="url(#mask0_1_4828)">
<mask id="mask1_1_4828" style="mask-type:alpha" maskUnits="userSpaceOnUse" x="0" y="0" width="110" height="110">
<circle cx="55" cy="55" r="55" fill="#95C3BB"/>
</mask>
<g mask="url(#mask1_1_4828)">
<g filter="url(#filter1_d_1_4828)">
<mask id="mask2_1_4828" style="mask-type:alpha" maskUnits="userSpaceOnUse" x="-5" y="6" width="123" height="46">
<path d="M117.667 51.8031H-4.13867V6.15161H117.667V51.8031Z" fill="#D9D9D9"/>
</mask>
<g mask="url(#mask2_1_4828)">
<circle cx="102.767" cy="46.5403" r="9.56303" fill="white"/>
<circle cx="105.289" cy="35.5394" r="6.56187" fill="white"/>
<circle cx="90.0296" cy="42.1012" r="6.56187" fill="white"/>
<circle cx="74.6174" cy="33.0095" r="16.8879" fill="white"/>
<circle cx="51.7456" cy="23.4279" r="13.5493" fill="white"/>
<circle cx="37.2632" cy="36.9773" r="13.5493" fill="white"/>
<circle cx="20.6545" cy="33.9184" r="8.1828" fill="white"/>
<circle cx="8.5542" cy="51.8032" r="14.4829" fill="white"/>
<ellipse cx="55.0474" cy="48.7276" rx="40.5269" ry="18.2613" fill="white"/>
</g>
</g>
</g>
<g filter="url(#filter2_d_1_4828)">
<path d="M20.0565 44.6719L20.0565 56.4509L23.3722 57.3129L29.4442 54.5942L29.6203 44.7575C29.663 42.3715 27.9402 40.3192 25.5829 39.9479C22.6808 39.4907 20.0565 41.734 20.0565 44.6719Z" fill="#F2F2F2"/>
<mask id="mask3_1_4828" style="mask-type:alpha" maskUnits="userSpaceOnUse" x="20" y="39" width="10" height="11">
<path d="M20.1226 44.563L20.0562 48.5034L21.8982 49.761L29.5672 48.1928L29.6256 44.7231C29.6655 42.3556 27.9565 40.32 25.6179 39.9494C22.7646 39.4973 20.1713 41.6745 20.1226 44.563Z" fill="#F2F2F2"/>
</mask>
<g mask="url(#mask3_1_4828)">
<path d="M30.1312 46.4164L19.7605 46.2418L20.2005 40.6038L24.3375 38.9434L28.0033 39.6729L29.8862 43.8931L30.1312 46.4164Z" fill="#F0E261"/>
</g>
</g>
<g filter="url(#filter3_d_1_4828)">
<mask id="mask4_1_4828" style="mask-type:alpha" maskUnits="userSpaceOnUse" x="0" y="44" width="110" height="66">
<path d="M55 110C85.3757 110 110 85.3756 110 54.9999L55 44.0161L0 54.9999C0 85.3756 24.6243 110 55 110Z" fill="#D9D9D9"/>
</mask>
<g mask="url(#mask4_1_4828)">
<path d="M45.0717 66.9753C62.6693 64.4557 27.8215 61.2491 27.5952 57.3793C27.3689 53.5095 67.8905 51.4146 67.8905 51.4146C67.8905 51.4146 47.4933 53.8828 47.4933 55.7019C47.4933 57.5209 62.059 58.1432 80.4696 61.9627C98.8802 65.7821 113.55 70.9535 113.55 70.9535V85.5401L103.183 115.111L30.884 121.477L-19.7246 76.5229C-3.9917 74.1802 30.9936 68.9909 45.0717 66.9753Z" fill="#D9D9D9"/>
<g filter="url(#filter4_d_1_4828)">
<path d="M62.9195 65.6621C61.6207 64.2859 55.9308 62.2153 52.6237 61.4243L55.4613 61.169C56.1347 61.3106 60.9814 62.0323 65.2963 63.6046C69.6112 65.1769 71.3081 66.8387 71.9623 68.1364L65.4519 68.3386L63.7465 68.3916C64.1014 68.3806 64.1284 66.9431 62.9195 65.6621Z" fill="white"/>
</g>
<g filter="url(#filter5_d_1_4828)">
<path d="M48.4656 60.0447C46.0836 59.4683 44.2131 58.6223 39.2383 57.9783H41.436C44.3163 58.1898 48.8664 59.1831 50.4733 59.712L48.4656 60.0447Z" fill="white"/>
</g>
<g filter="url(#filter6_d_1_4828)">
<path d="M73.4906 73.4983H63.2455C58.196 91.0428 49.4128 105.891 45.6523 111.122H71.9379C76.4085 91.8073 74.8358 77.9917 73.4906 73.4983Z" fill="white"/>
</g>
</g>
</g>
</g>
</g>
<defs>
<filter id="filter0_i_1_4828" x="-2" y="0" width="112" height="114" filterUnits="userSpaceOnUse" color-interpolation-filters="sRGB">
<feFlood flood-opacity="0" result="BackgroundImageFix"/>
<feBlend mode="normal" in="SourceGraphic" in2="BackgroundImageFix" result="shape"/>
<feColorMatrix in="SourceAlpha" type="matrix" values="0 0 0 0 0 0 0 0 0 0 0 0 0 0 0 0 0 0 127 0" result="hardAlpha"/>
<feOffset dx="-2" dy="4"/>
<feGaussianBlur stdDeviation="2"/>
<feComposite in2="hardAlpha" operator="arithmetic" k2="-1" k3="1"/>
<feColorMatrix type="matrix" values="0 0 0 0 0 0 0 0 0 0 0 0 0 0 0 0 0 0 0.25 0"/>
<feBlend mode="normal" in2="shape" result="effect1_innerShadow_1_4828"/>
</filter>
<filter id="filter1_d_1_4828" x="-13.6387" y="3.37866" width="125.968" height="50.9243" filterUnits="userSpaceOnUse" color-interpolation-filters="sRGB">
<feFlood flood-opacity="0" result="BackgroundImageFix"/>
<feColorMatrix in="SourceAlpha" type="matrix" values="0 0 0 0 0 0 0 0 0 0 0 0 0 0 0 0 0 0 127 0" result="hardAlpha"/>
<feOffset dx="-5" dy="-2"/>
<feGaussianBlur stdDeviation="2.25"/>
<feComposite in2="hardAlpha" operator="out"/>
<feColorMatrix type="matrix" values="0 0 0 0 0 0 0 0 0 0 0 0 0 0 0 0 0 0 0.12 0"/>
<feBlend mode="normal" in2="BackgroundImageFix" result="effect1_dropShadow_1_4828"/>
<feBlend mode="normal" in="SourceGraphic" in2="effect1_dropShadow_1_4828" result="shape"/>
</filter>
<filter id="filter2_d_1_4828" x="16.0563" y="37.8884" width="17.5701" height="25.4246" filterUnits="userSpaceOnUse" color-interpolation-filters="sRGB">
<feFlood flood-opacity="0" result="BackgroundImageFix"/>
<feColorMatrix in="SourceAlpha" type="matrix" values="0 0 0 0 0 0 0 0 0 0 0 0 0 0 0 0 0 0 127 0" result="hardAlpha"/>
<feOffset dy="2"/>
<feGaussianBlur stdDeviation="2"/>
<feComposite in2="hardAlpha" operator="out"/>
<feColorMatrix type="matrix" values="0 0 0 0 0 0 0 0 0 0 0 0 0 0 0 0 0 0 0.25 0"/>
<feBlend mode="normal" in2="BackgroundImageFix" result="effect1_dropShadow_1_4828"/>
<feBlend mode="normal" in="SourceGraphic" in2="effect1_dropShadow_1_4828" result="shape"/>
</filter>
<filter id="filter3_d_1_4828" x="-4" y="46.4146" width="118" height="66.5854" filterUnits="userSpaceOnUse" color-interpolation-filters="sRGB">
<feFlood flood-opacity="0" result="BackgroundImageFix"/>
<feColorMatrix in="SourceAlpha" type="matrix" values="0 0 0 0 0 0 0 0 0 0 0 0 0 0 0 0 0 0 127 0" result="hardAlpha"/>
<feOffset dy="-1"/>
<feGaussianBlur stdDeviation="2"/>
<feComposite in2="hardAlpha" operator="out"/>
<feColorMatrix type="matrix" values="0 0 0 0 0 0 0 0 0 0 0 0 0 0 0 0 0 0 0.25 0"/>
<feBlend mode="normal" in2="BackgroundImageFix" result="effect1_dropShadow_1_4828"/>
<feBlend mode="normal" in="SourceGraphic" in2="effect1_dropShadow_1_4828" result="shape"/>
</filter>
<filter id="filter4_d_1_4828" x="52.3237" y="59.8689" width="21.9386" height="9.82266" filterUnits="userSpaceOnUse" color-interpolation-filters="sRGB">
<feFlood flood-opacity="0" result="BackgroundImageFix"/>
<feColorMatrix in="SourceAlpha" type="matrix" values="0 0 0 0 0 0 0 0 0 0 0 0 0 0 0 0 0 0 127 0" result="hardAlpha"/>
<feOffset dx="1"/>
<feGaussianBlur stdDeviation="0.65"/>
<feComposite in2="hardAlpha" operator="out"/>
<feColorMatrix type="matrix" values="0 0 0 0 0 0 0 0 0 0 0 0 0 0 0 0 0 0 0.1 0"/>
<feBlend mode="normal" in2="BackgroundImageFix" result="effect1_dropShadow_1_4828"/>
<feBlend mode="normal" in="SourceGraphic" in2="effect1_dropShadow_1_4828" result="shape"/>
</filter>
<filter id="filter5_d_1_4828" x="38.9383" y="56.6783" width="13.8351" height="4.66641" filterUnits="userSpaceOnUse" color-interpolation-filters="sRGB">
<feFlood flood-opacity="0" result="BackgroundImageFix"/>
<feColorMatrix in="SourceAlpha" type="matrix" values="0 0 0 0 0 0 0 0 0 0 0 0 0 0 0 0 0 0 127 0" result="hardAlpha"/>
<feOffset dx="1"/>
<feGaussianBlur stdDeviation="0.65"/>
<feComposite in2="hardAlpha" operator="out"/>
<feColorMatrix type="matrix" values="0 0 0 0 0 0 0 0 0 0 0 0 0 0 0 0 0 0 0.1 0"/>
<feBlend mode="normal" in2="BackgroundImageFix" result="effect1_dropShadow_1_4828"/>
<feBlend mode="normal" in="SourceGraphic" in2="effect1_dropShadow_1_4828" result="shape"/>
</filter>
<filter id="filter6_d_1_4828" x="45.3523" y="72.1983" width="31.8428" height="40.224" filterUnits="userSpaceOnUse" color-interpolation-filters="sRGB">
<feFlood flood-opacity="0" result="BackgroundImageFix"/>
<feColorMatrix in="SourceAlpha" type="matrix" values="0 0 0 0 0 0 0 0 0 0 0 0 0 0 0 0 0 0 127 0" result="hardAlpha"/>
<feOffset dx="1"/>
<feGaussianBlur stdDeviation="0.65"/>
<feComposite in2="hardAlpha" operator="out"/>
<feColorMatrix type="matrix" values="0 0 0 0 0 0 0 0 0 0 0 0 0 0 0 0 0 0 0.1 0"/>
<feBlend mode="normal" in2="BackgroundImageFix" result="effect1_dropShadow_1_4828"/>
<feBlend mode="normal" in="SourceGraphic" in2="effect1_dropShadow_1_4828" result="shape"/>
</filter>
</defs>
</svg>
