<svg width="28" height="28" viewBox="0 0 28 28" fill="none" xmlns="http://www.w3.org/2000/svg">
<path fill-rule="evenodd" clip-rule="evenodd" d="M3.2832 27.9071H0V0.562349H3.2832V27.9071ZM28 27.9071H24.7168V0.562349H28V27.9071ZM9.0918 9.27329C10.2653 9.27329 11.2158 10.2287 11.2158 11.4071C11.2156 12.5853 10.2652 13.5409 9.0918 13.5409C7.91899 13.5408 6.96796 12.5853 6.96777 11.4071C6.96777 10.2287 7.91888 9.27334 9.0918 9.27329ZM19.0156 9.27329C20.1891 9.27329 21.1396 10.2287 21.1396 11.4071C21.1395 12.5853 20.189 13.5409 19.0156 13.5409C17.8428 13.5408 16.8918 12.5853 16.8916 11.4071C16.8916 10.2287 17.8427 9.27334 19.0156 9.27329ZM15.0713 1.96274C16.8773 0.0325641 19.6467 -0.529334 22.0625 0.524263L22.2402 0.601412L20.9365 3.61704L20.7588 3.53891C19.6259 3.04494 18.3261 3.30904 17.4795 4.21469C16.6833 5.06692 16.5013 6.32776 16.9697 7.40122L17.0244 7.52817L14.0098 8.83286L13.998 8.80551L13.9863 8.83286L10.9717 7.52817L11.0264 7.40122C11.4948 6.32776 11.3128 5.06692 10.5166 4.21469C9.66994 3.30904 8.37023 3.04494 7.2373 3.53891L7.05957 3.61704L5.75586 0.601412L5.93359 0.524263C8.34937 -0.529334 11.1187 0.032564 12.9248 1.96274C13.374 2.44276 13.7321 2.98351 13.998 3.56137C14.264 2.98351 14.6221 2.44276 15.0713 1.96274Z" fill="#FF4E4E"/>
</svg>
