<svg width="24" height="24" viewBox="0 0 24 24" fill="none" xmlns="http://www.w3.org/2000/svg">
<path d="M13.5 3.5V6H6.39535C4.79629 6 3.5 7.29629 3.5 8.89535V9H13.5V11.5L19.5 7.5L13.5 3.5Z" fill="#0B3C58"/>
<path d="M13.5 6V6.4H13.9V6H13.5ZM13.5 3.5L13.7219 3.16718C13.5991 3.08535 13.4413 3.07772 13.3113 3.14733C13.1812 3.21694 13.1 3.35248 13.1 3.5H13.5ZM19.5 7.5L19.7219 7.83282C19.8332 7.75863 19.9 7.63374 19.9 7.5C19.9 7.36626 19.8332 7.24137 19.7219 7.16718L19.5 7.5ZM13.5 11.5H13.1C13.1 11.6475 13.1812 11.7831 13.3113 11.8527C13.4413 11.9223 13.5991 11.9146 13.7219 11.8328L13.5 11.5ZM13.5 9H13.9V8.6H13.5V9ZM3.5 9H3.1C3.1 9.22091 3.27909 9.4 3.5 9.4V9ZM13.5 6H13.9V3.5H13.5H13.1V6H13.5ZM13.5 3.5L13.2781 3.83282L19.2781 7.83282L19.5 7.5L19.7219 7.16718L13.7219 3.16718L13.5 3.5ZM19.5 7.5L19.2781 7.16718L13.2781 11.1672L13.5 11.5L13.7219 11.8328L19.7219 7.83282L19.5 7.5ZM13.5 11.5H13.9V9H13.5H13.1V11.5H13.5ZM13.5 6V5.6H6.39535V6V6.4H13.5V6ZM3.5 8.89535H3.1V9H3.5H3.9V8.89535H3.5ZM3.5 9V9.4H13.5V9V8.6H3.5V9ZM6.39535 6V5.6C4.57538 5.6 3.1 7.07538 3.1 8.89535H3.5H3.9C3.9 7.51721 5.01721 6.4 6.39535 6.4V6Z" fill="#0B3C58"/>
<path d="M10.5 20.5L10.5 18L17.6046 18C19.2037 18 20.5 16.7037 20.5 15.1046L20.5 15L10.5 15L10.5 12.5L4.5 16.5L10.5 20.5Z" fill="#0B3C58"/>
<path d="M10.5 18L10.5 17.6L10.1 17.6L10.1 18L10.5 18ZM10.5 20.5L10.2781 20.8328C10.4009 20.9146 10.5587 20.9223 10.6887 20.8527C10.8188 20.7831 10.9 20.6475 10.9 20.5L10.5 20.5ZM4.5 16.5L4.27812 16.1672C4.16684 16.2414 4.1 16.3663 4.1 16.5C4.1 16.6337 4.16684 16.7586 4.27812 16.8328L4.5 16.5ZM10.5 12.5L10.9 12.5C10.9 12.3525 10.8188 12.2169 10.6887 12.1473C10.5587 12.0777 10.4009 12.0854 10.2781 12.1672L10.5 12.5ZM10.5 15L10.1 15L10.1 15.4L10.5 15.4L10.5 15ZM20.5 15L20.9 15C20.9 14.7791 20.7209 14.6 20.5 14.6L20.5 15ZM10.5 18L10.1 18L10.1 20.5L10.5 20.5L10.9 20.5L10.9 18L10.5 18ZM10.5 20.5L10.7219 20.1672L4.72188 16.1672L4.5 16.5L4.27812 16.8328L10.2781 20.8328L10.5 20.5ZM4.5 16.5L4.72188 16.8328L10.7219 12.8328L10.5 12.5L10.2781 12.1672L4.27812 16.1672L4.5 16.5ZM10.5 12.5L10.1 12.5L10.1 15L10.5 15L10.9 15L10.9 12.5L10.5 12.5ZM10.5 18L10.5 18.4L17.6046 18.4L17.6046 18L17.6046 17.6L10.5 17.6L10.5 18ZM20.5 15.1046L20.9 15.1046L20.9 15L20.5 15L20.1 15L20.1 15.1046L20.5 15.1046ZM20.5 15L20.5 14.6L10.5 14.6L10.5 15L10.5 15.4L20.5 15.4L20.5 15ZM17.6046 18L17.6046 18.4C19.4246 18.4 20.9 16.9246 20.9 15.1046L20.5 15.1046L20.1 15.1046C20.1 16.4828 18.9828 17.6 17.6046 17.6L17.6046 18Z" fill="#0B3C58"/>
</svg>
